<svg width="62" height="24" viewBox="0 0 62 24" fill="none" xmlns="http://www.w3.org/2000/svg">
<path d="M12.24 7.76H23.8C24.2533 7.76 24.5933 7.86 24.82 8.06C25.0467 8.26 25.16 8.51333 25.16 8.82C25.16 9.11333 25.04 9.37333 24.8 9.6C24.5733 9.81333 24.24 9.92 23.8 9.92H21.54C21.46 10.7867 21.26 11.9267 20.94 13.34C20.62 14.7533 20.3733 15.8467 20.2 16.62C20.04 17.3933 19.9133 17.9867 19.82 18.4C19.7267 18.8 19.6133 19.24 19.48 19.72C19.2533 20.6133 19 21.06 18.72 21.06C18.48 21.06 18.1667 20.86 17.78 20.46C17.4067 20.0467 17.22 19.64 17.22 19.24C17.22 19.12 17.2667 18.84 17.36 18.4C17.7733 16.6 18.0133 15.4267 18.08 14.88C18.2267 13.8267 18.4733 12.1733 18.82 9.92H16.08C16.0267 10.2267 15.84 10.96 15.52 12.12C15.2133 13.2667 15.0133 14.0533 14.92 14.48C14.8267 14.8933 14.72 15.36 14.6 15.88C14.4933 16.4 14.4 16.82 14.32 17.14C14.2533 17.46 14.1667 17.8467 14.06 18.3C13.9533 18.74 13.8533 19.1 13.76 19.38C13.68 19.66 13.5867 19.9333 13.48 20.2C13.2933 20.7467 13.1 21.02 12.9 21.02C12.6333 21.02 12.3067 20.8733 11.92 20.58C11.5333 20.2867 11.34 20.02 11.34 19.78C11.34 18.9267 11.64 17.1733 12.24 14.52C11.4533 14.8 10.4667 15.0467 9.28 15.26C9.61333 15.6733 9.78 16.1667 9.78 16.74C9.78 17.9133 9.30667 18.8467 8.36 19.54C7.42667 20.2333 6.25333 20.58 4.84 20.58C3.44 20.58 2.33333 20.2 1.52 19.44C0.706667 18.6667 0.3 17.8267 0.3 16.92C0.3 16.44 0.406667 16.0667 0.62 15.8C0.833333 15.5333 1.08667 15.4 1.38 15.4C1.68667 15.4 1.94 15.5 2.14 15.7C2.34 15.8867 2.44 16.1067 2.44 16.36C2.44 16.9733 2.65333 17.48 3.08 17.88C3.50667 18.2667 4.06667 18.46 4.76 18.46C5.45333 18.46 6.05333 18.32 6.56 18.04C7.08 17.7467 7.34 17.3467 7.34 16.84C7.34 16.3333 7.21333 15.9733 6.96 15.76C6.4 16.04 5.92667 16.18 5.54 16.18C5.16667 16.18 4.78 15.9933 4.38 15.62C3.98 15.2467 3.78 14.9267 3.78 14.66C3.78 14.1 4.46 13.82 5.82 13.82C5.96667 13.82 6.2 13.8333 6.52 13.86C7.69333 12.8733 8.28 11.9267 8.28 11.02C8.28 10.7533 8.22667 10.58 8.12 10.5C8.01333 10.4067 7.78667 10.36 7.44 10.36C7.09333 10.36 6.69333 10.4667 6.24 10.68C5.78667 10.88 5.56 11.0933 5.56 11.32C5.56 11.72 5.48667 11.9667 5.34 12.06C5.06 12.22 4.84 12.3 4.68 12.3C4.52 12.3 4.26667 12.1133 3.92 11.74C3.58667 11.3667 3.42 11.06 3.42 10.82C3.42 10.1133 3.88 9.48 4.8 8.92C5.72 8.34667 6.64 8.06 7.56 8.06C8.48 8.06 9.17333 8.30667 9.64 8.8C10.1067 9.29333 10.34 9.95333 10.34 10.78C10.34 11.5933 10.08 12.42 9.56 13.26C10.84 12.8467 11.92 12.3467 12.8 11.76C12.96 10.9333 13.0867 10.32 13.18 9.92H12.24C11.7867 9.92 11.44 9.82 11.2 9.62C10.9733 9.40667 10.86 9.13333 10.86 8.8C10.86 8.10667 11.32 7.76 12.24 7.76ZM34.5225 7.76H39.0825C39.5358 7.76 39.8758 7.86 40.1025 8.06C40.3292 8.26 40.4425 8.51333 40.4425 8.82C40.4425 9.11333 40.3225 9.37333 40.0825 9.6C39.8558 9.81333 39.5225 9.92 39.0825 9.92H36.8425C36.7625 10.7867 36.5558 11.94 36.2225 13.38C35.9025 14.8067 35.6692 15.8933 35.5225 16.64C35.3892 17.3733 35.2758 17.96 35.1825 18.4C35.0892 18.8267 34.9758 19.2667 34.8425 19.72C34.6025 20.6133 34.2758 21.06 33.8625 21.06C33.5692 21.06 33.3025 20.94 33.0625 20.7C32.8225 20.4467 32.7025 20.08 32.7025 19.6C32.7025 19.3867 32.7958 18.6533 32.9825 17.4C33.1825 16.1467 33.3158 15.3067 33.3825 14.88C33.4492 14.4533 33.7025 12.7867 34.1425 9.88C33.4758 9.78667 33.1425 9.42667 33.1425 8.8C33.1425 8.10667 33.6025 7.76 34.5225 7.76ZM23.1625 14.52V14.46C23.1625 14.1133 23.2158 13.82 23.3225 13.58C23.4425 13.34 23.6158 13.22 23.8425 13.22C24.0692 13.22 24.3025 13.34 24.5425 13.58C24.7958 13.8067 25.0825 14.04 25.4025 14.28C25.7358 14.52 26.1358 14.64 26.6025 14.64C27.5892 14.64 28.4558 14.3133 29.2025 13.66C29.0958 13.6733 28.9292 13.68 28.7025 13.68C27.5025 13.68 26.5158 13.4 25.7425 12.84C24.9825 12.2667 24.6025 11.52 24.6025 10.6C24.6025 9.68 24.9892 8.91333 25.7625 8.3C26.5358 7.68667 27.5158 7.38 28.7025 7.38C29.9025 7.38 30.8758 7.73333 31.6225 8.44C32.3692 9.14667 32.7425 10.1067 32.7425 11.32C32.7425 12.52 32.2558 13.6667 31.2825 14.76C30.3092 15.84 29.0492 16.4867 27.5025 16.7C28.8625 18.4467 29.5425 19.6267 29.5425 20.24C29.5425 20.48 29.4558 20.6733 29.2825 20.82C29.1092 20.9533 28.9292 21.02 28.7425 21.02C28.5558 21.02 28.4025 21 28.2825 20.96C28.1758 20.9067 28.0558 20.8267 27.9225 20.72C27.8025 20.6133 27.6892 20.5133 27.5825 20.42C27.4758 20.3133 27.3425 20.1733 27.1825 20C27.0358 19.8133 26.9092 19.66 26.8025 19.54C26.7092 19.4067 26.5758 19.2333 26.4025 19.02C26.2292 18.8067 26.0692 18.6133 25.9225 18.44C25.7892 18.2667 25.5492 17.98 25.2025 17.58C24.8692 17.1667 24.6025 16.8467 24.4025 16.62C24.2158 16.38 24.0158 16.1133 23.8025 15.82C23.3758 15.26 23.1625 14.8267 23.1625 14.52ZM28.8025 9.84C28.4158 9.84 28.0758 9.92667 27.7825 10.1C27.5025 10.26 27.3625 10.5067 27.3625 10.84C27.3625 11.16 27.5092 11.42 27.8025 11.62C28.1092 11.8067 28.4358 11.9 28.7825 11.9C29.1292 11.9 29.6225 11.8667 30.2625 11.8C30.2758 11.7333 30.2825 11.62 30.2825 11.46C30.2825 10.94 30.1358 10.54 29.8425 10.26C29.5492 9.98 29.2025 9.84 28.8025 9.84ZM45.1522 7.76C45.6055 7.76 45.9455 7.86 46.1722 8.06C46.3989 8.26 46.5122 8.51333 46.5122 8.82C46.5122 9.11333 46.3922 9.37333 46.1522 9.6C45.9255 9.81333 45.5922 9.92 45.1522 9.92H42.8322C42.6322 11.8267 42.3722 13.5533 42.0522 15.1C41.7455 16.6333 41.5122 17.66 41.3522 18.18C41.2055 18.6867 41.0322 19.1733 40.8322 19.64C40.6455 20.0933 40.4389 20.44 40.2122 20.68C39.9989 20.92 39.7722 21.04 39.5322 21.04C39.2922 21.04 39.1055 20.94 38.9722 20.74C38.8522 20.5267 38.7922 20.2133 38.7922 19.8C38.7922 19.3867 39.0189 18.0533 39.4722 15.8C39.9389 13.5333 40.2455 11.5733 40.3922 9.92H34.0322C33.5789 9.92 33.2389 9.82 33.0122 9.62C32.7722 9.40667 32.6522 9.13333 32.6522 8.8C32.6522 8.10667 33.1122 7.76 34.0322 7.76H35.0122C35.3589 6.37333 36.0655 4.96667 37.1322 3.54C38.2122 2.1 39.2389 1.38 40.2122 1.38C41.1989 1.38 41.9122 1.82 42.3522 2.7C42.8055 3.58 43.0322 4.7 43.0322 6.06C43.0322 6.42 43.0189 6.98667 42.9922 7.76H45.1522ZM40.5522 6.7C40.5522 4.91333 40.3855 4.02 40.0522 4.02C39.8122 4.02 39.3989 4.43333 38.8122 5.26C38.2389 6.08667 37.7655 6.92 37.3922 7.76H40.5322C40.5455 7.53333 40.5522 7.18 40.5522 6.7ZM43.3106 7.76H57.3306C57.784 7.76 58.124 7.86 58.3506 8.06C58.5773 8.26 58.6906 8.51333 58.6906 8.82C58.6906 9.11333 58.5706 9.37333 58.3306 9.6C58.104 9.81333 57.7706 9.92 57.3306 9.92H55.0506C54.9706 10.7867 54.764 11.94 54.4306 13.38C54.1106 14.8067 53.8773 15.8933 53.7306 16.64C53.5973 17.3733 53.484 17.96 53.3906 18.4C53.2973 18.8267 53.184 19.2667 53.0506 19.72C52.8106 20.6133 52.484 21.06 52.0706 21.06C51.7773 21.06 51.5106 20.94 51.2706 20.7C51.0306 20.4467 50.9106 20.08 50.9106 19.6C50.9106 19.44 51.084 18.2267 51.4306 15.96C50.004 17.72 48.6106 18.6 47.2506 18.6C46.4506 18.6 45.844 18.1667 45.4306 17.3C45.0306 16.4333 44.8306 15.34 44.8306 14.02C44.8306 12.6867 45.0106 11.32 45.3706 9.92H43.3106C42.8573 9.92 42.5173 9.82 42.2906 9.62C42.0506 9.40667 41.9306 9.13333 41.9306 8.8C41.9306 8.10667 42.3906 7.76 43.3106 7.76ZM52.3306 9.92H49.2306C49.7506 11.1733 50.284 12.2933 50.8306 13.28C51.4706 12.24 51.9573 11.2067 52.2906 10.18L52.3306 9.92ZM47.8306 16.14C48.324 16.14 48.9373 15.72 49.6706 14.88C48.8706 13.72 48.1706 12.5733 47.5706 11.44C47.424 12.3067 47.3506 13.1867 47.3506 14.08C47.3506 15.4533 47.5106 16.14 47.8306 16.14Z" transform="translate(2.04943 3.77923) rotate(-4)" fill="#002EA8"/>
<path d="M12.24 7.76H23.8C24.2533 7.76 24.5933 7.86 24.82 8.06C25.0467 8.26 25.16 8.51333 25.16 8.82C25.16 9.11333 25.04 9.37333 24.8 9.6C24.5733 9.81333 24.24 9.92 23.8 9.92H21.54C21.46 10.7867 21.26 11.9267 20.94 13.34C20.62 14.7533 20.3733 15.8467 20.2 16.62C20.04 17.3933 19.9133 17.9867 19.82 18.4C19.7267 18.8 19.6133 19.24 19.48 19.72C19.2533 20.6133 19 21.06 18.72 21.06C18.48 21.06 18.1667 20.86 17.78 20.46C17.4067 20.0467 17.22 19.64 17.22 19.24C17.22 19.12 17.2667 18.84 17.36 18.4C17.7733 16.6 18.0133 15.4267 18.08 14.88C18.2267 13.8267 18.4733 12.1733 18.82 9.92H16.08C16.0267 10.2267 15.84 10.96 15.52 12.12C15.2133 13.2667 15.0133 14.0533 14.92 14.48C14.8267 14.8933 14.72 15.36 14.6 15.88C14.4933 16.4 14.4 16.82 14.32 17.14C14.2533 17.46 14.1667 17.8467 14.06 18.3C13.9533 18.74 13.8533 19.1 13.76 19.38C13.68 19.66 13.5867 19.9333 13.48 20.2C13.2933 20.7467 13.1 21.02 12.9 21.02C12.6333 21.02 12.3067 20.8733 11.92 20.58C11.5333 20.2867 11.34 20.02 11.34 19.78C11.34 18.9267 11.64 17.1733 12.24 14.52C11.4533 14.8 10.4667 15.0467 9.28 15.26C9.61333 15.6733 9.78 16.1667 9.78 16.74C9.78 17.9133 9.30667 18.8467 8.36 19.54C7.42667 20.2333 6.25333 20.58 4.84 20.58C3.44 20.58 2.33333 20.2 1.52 19.44C0.706667 18.6667 0.3 17.8267 0.3 16.92C0.3 16.44 0.406667 16.0667 0.62 15.8C0.833333 15.5333 1.08667 15.4 1.38 15.4C1.68667 15.4 1.94 15.5 2.14 15.7C2.34 15.8867 2.44 16.1067 2.44 16.36C2.44 16.9733 2.65333 17.48 3.08 17.88C3.50667 18.2667 4.06667 18.46 4.76 18.46C5.45333 18.46 6.05333 18.32 6.56 18.04C7.08 17.7467 7.34 17.3467 7.34 16.84C7.34 16.3333 7.21333 15.9733 6.96 15.76C6.4 16.04 5.92667 16.18 5.54 16.18C5.16667 16.18 4.78 15.9933 4.38 15.62C3.98 15.2467 3.78 14.9267 3.78 14.66C3.78 14.1 4.46 13.82 5.82 13.82C5.96667 13.82 6.2 13.8333 6.52 13.86C7.69333 12.8733 8.28 11.9267 8.28 11.02C8.28 10.7533 8.22667 10.58 8.12 10.5C8.01333 10.4067 7.78667 10.36 7.44 10.36C7.09333 10.36 6.69333 10.4667 6.24 10.68C5.78667 10.88 5.56 11.0933 5.56 11.32C5.56 11.72 5.48667 11.9667 5.34 12.06C5.06 12.22 4.84 12.3 4.68 12.3C4.52 12.3 4.26667 12.1133 3.92 11.74C3.58667 11.3667 3.42 11.06 3.42 10.82C3.42 10.1133 3.88 9.48 4.8 8.92C5.72 8.34667 6.64 8.06 7.56 8.06C8.48 8.06 9.17333 8.30667 9.64 8.8C10.1067 9.29333 10.34 9.95333 10.34 10.78C10.34 11.5933 10.08 12.42 9.56 13.26C10.84 12.8467 11.92 12.3467 12.8 11.76C12.96 10.9333 13.0867 10.32 13.18 9.92H12.24C11.7867 9.92 11.44 9.82 11.2 9.62C10.9733 9.40667 10.86 9.13333 10.86 8.8C10.86 8.10667 11.32 7.76 12.24 7.76ZM34.5225 7.76H39.0825C39.5358 7.76 39.8758 7.86 40.1025 8.06C40.3292 8.26 40.4425 8.51333 40.4425 8.82C40.4425 9.11333 40.3225 9.37333 40.0825 9.6C39.8558 9.81333 39.5225 9.92 39.0825 9.92H36.8425C36.7625 10.7867 36.5558 11.94 36.2225 13.38C35.9025 14.8067 35.6692 15.8933 35.5225 16.64C35.3892 17.3733 35.2758 17.96 35.1825 18.4C35.0892 18.8267 34.9758 19.2667 34.8425 19.72C34.6025 20.6133 34.2758 21.06 33.8625 21.06C33.5692 21.06 33.3025 20.94 33.0625 20.7C32.8225 20.4467 32.7025 20.08 32.7025 19.6C32.7025 19.3867 32.7958 18.6533 32.9825 17.4C33.1825 16.1467 33.3158 15.3067 33.3825 14.88C33.4492 14.4533 33.7025 12.7867 34.1425 9.88C33.4758 9.78667 33.1425 9.42667 33.1425 8.8C33.1425 8.10667 33.6025 7.76 34.5225 7.76ZM23.1625 14.52V14.46C23.1625 14.1133 23.2158 13.82 23.3225 13.58C23.4425 13.34 23.6158 13.22 23.8425 13.22C24.0692 13.22 24.3025 13.34 24.5425 13.58C24.7958 13.8067 25.0825 14.04 25.4025 14.28C25.7358 14.52 26.1358 14.64 26.6025 14.64C27.5892 14.64 28.4558 14.3133 29.2025 13.66C29.0958 13.6733 28.9292 13.68 28.7025 13.68C27.5025 13.68 26.5158 13.4 25.7425 12.84C24.9825 12.2667 24.6025 11.52 24.6025 10.6C24.6025 9.68 24.9892 8.91333 25.7625 8.3C26.5358 7.68667 27.5158 7.38 28.7025 7.38C29.9025 7.38 30.8758 7.73333 31.6225 8.44C32.3692 9.14667 32.7425 10.1067 32.7425 11.32C32.7425 12.52 32.2558 13.6667 31.2825 14.76C30.3092 15.84 29.0492 16.4867 27.5025 16.7C28.8625 18.4467 29.5425 19.6267 29.5425 20.24C29.5425 20.48 29.4558 20.6733 29.2825 20.82C29.1092 20.9533 28.9292 21.02 28.7425 21.02C28.5558 21.02 28.4025 21 28.2825 20.96C28.1758 20.9067 28.0558 20.8267 27.9225 20.72C27.8025 20.6133 27.6892 20.5133 27.5825 20.42C27.4758 20.3133 27.3425 20.1733 27.1825 20C27.0358 19.8133 26.9092 19.66 26.8025 19.54C26.7092 19.4067 26.5758 19.2333 26.4025 19.02C26.2292 18.8067 26.0692 18.6133 25.9225 18.44C25.7892 18.2667 25.5492 17.98 25.2025 17.58C24.8692 17.1667 24.6025 16.8467 24.4025 16.62C24.2158 16.38 24.0158 16.1133 23.8025 15.82C23.3758 15.26 23.1625 14.8267 23.1625 14.52ZM28.8025 9.84C28.4158 9.84 28.0758 9.92667 27.7825 10.1C27.5025 10.26 27.3625 10.5067 27.3625 10.84C27.3625 11.16 27.5092 11.42 27.8025 11.62C28.1092 11.8067 28.4358 11.9 28.7825 11.9C29.1292 11.9 29.6225 11.8667 30.2625 11.8C30.2758 11.7333 30.2825 11.62 30.2825 11.46C30.2825 10.94 30.1358 10.54 29.8425 10.26C29.5492 9.98 29.2025 9.84 28.8025 9.84ZM45.1522 7.76C45.6055 7.76 45.9455 7.86 46.1722 8.06C46.3989 8.26 46.5122 8.51333 46.5122 8.82C46.5122 9.11333 46.3922 9.37333 46.1522 9.6C45.9255 9.81333 45.5922 9.92 45.1522 9.92H42.8322C42.6322 11.8267 42.3722 13.5533 42.0522 15.1C41.7455 16.6333 41.5122 17.66 41.3522 18.18C41.2055 18.6867 41.0322 19.1733 40.8322 19.64C40.6455 20.0933 40.4389 20.44 40.2122 20.68C39.9989 20.92 39.7722 21.04 39.5322 21.04C39.2922 21.04 39.1055 20.94 38.9722 20.74C38.8522 20.5267 38.7922 20.2133 38.7922 19.8C38.7922 19.3867 39.0189 18.0533 39.4722 15.8C39.9389 13.5333 40.2455 11.5733 40.3922 9.92H34.0322C33.5789 9.92 33.2389 9.82 33.0122 9.62C32.7722 9.40667 32.6522 9.13333 32.6522 8.8C32.6522 8.10667 33.1122 7.76 34.0322 7.76H35.0122C35.3589 6.37333 36.0655 4.96667 37.1322 3.54C38.2122 2.1 39.2389 1.38 40.2122 1.38C41.1989 1.38 41.9122 1.82 42.3522 2.7C42.8055 3.58 43.0322 4.7 43.0322 6.06C43.0322 6.42 43.0189 6.98667 42.9922 7.76H45.1522ZM40.5522 6.7C40.5522 4.91333 40.3855 4.02 40.0522 4.02C39.8122 4.02 39.3989 4.43333 38.8122 5.26C38.2389 6.08667 37.7655 6.92 37.3922 7.76H40.5322C40.5455 7.53333 40.5522 7.18 40.5522 6.7ZM43.3106 7.76H57.3306C57.784 7.76 58.124 7.86 58.3506 8.06C58.5773 8.26 58.6906 8.51333 58.6906 8.82C58.6906 9.11333 58.5706 9.37333 58.3306 9.6C58.104 9.81333 57.7706 9.92 57.3306 9.92H55.0506C54.9706 10.7867 54.764 11.94 54.4306 13.38C54.1106 14.8067 53.8773 15.8933 53.7306 16.64C53.5973 17.3733 53.484 17.96 53.3906 18.4C53.2973 18.8267 53.184 19.2667 53.0506 19.72C52.8106 20.6133 52.484 21.06 52.0706 21.06C51.7773 21.06 51.5106 20.94 51.2706 20.7C51.0306 20.4467 50.9106 20.08 50.9106 19.6C50.9106 19.44 51.084 18.2267 51.4306 15.96C50.004 17.72 48.6106 18.6 47.2506 18.6C46.4506 18.6 45.844 18.1667 45.4306 17.3C45.0306 16.4333 44.8306 15.34 44.8306 14.02C44.8306 12.6867 45.0106 11.32 45.3706 9.92H43.3106C42.8573 9.92 42.5173 9.82 42.2906 9.62C42.0506 9.40667 41.9306 9.13333 41.9306 8.8C41.9306 8.10667 42.3906 7.76 43.3106 7.76ZM52.3306 9.92H49.2306C49.7506 11.1733 50.284 12.2933 50.8306 13.28C51.4706 12.24 51.9573 11.2067 52.2906 10.18L52.3306 9.92ZM47.8306 16.14C48.324 16.14 48.9373 15.72 49.6706 14.88C48.8706 13.72 48.1706 12.5733 47.5706 11.44C47.424 12.3067 47.3506 13.1867 47.3506 14.08C47.3506 15.4533 47.5106 16.14 47.8306 16.14Z" transform="translate(-0.950571 1.77923) rotate(-4)" fill="#7684FF"/>
</svg>
