<svg width="85" height="53" viewBox="0 0 85 53" fill="none" xmlns="http://www.w3.org/2000/svg">
<path d="M19.8939 17.6816L36.0385 16.5527C36.6716 16.5084 37.1563 16.6149 37.4923 16.8721C37.8284 17.1293 38.0115 17.472 38.0414 17.9003C38.0701 18.3099 37.9279 18.6848 37.6148 19.0248C37.3191 19.3448 36.864 19.5264 36.2495 19.5693L33.0932 19.79C33.0661 21.0082 32.8981 22.6199 32.5892 24.625C32.2803 26.6301 32.0426 28.1811 31.8761 29.2781C31.7281 30.3737 31.6092 31.2147 31.5192 31.8011C31.4279 32.3689 31.3126 32.9944 31.1733 33.6778C30.9439 34.9476 30.6338 35.5961 30.2427 35.6235C29.9075 35.6469 29.4504 35.3982 28.8713 34.8773C28.3096 34.3365 28.0092 33.7868 27.9701 33.2282C27.9584 33.0606 27.9962 32.665 28.0836 32.0413C28.4851 29.4871 28.7056 27.825 28.7454 27.055C28.8473 25.5696 29.0304 23.2365 29.2945 20.0557L25.4678 20.3233C25.4233 20.7568 25.2342 21.7992 24.9006 23.4505C24.5842 25.0818 24.3818 26.2 24.2931 26.805C24.2031 27.3914 24.0997 28.0535 23.9829 28.7915C23.8847 29.5281 23.7954 30.1238 23.7149 30.5785C23.653 31.0319 23.5698 31.5804 23.4651 32.224C23.3591 32.8489 23.2546 33.3614 23.1516 33.7616C23.0672 34.1604 22.9635 34.5513 22.8406 34.9341C22.6333 35.7158 22.39 36.1164 22.1107 36.136C21.7382 36.162 21.2677 35.9891 20.699 35.6172C20.1304 35.2453 19.8343 34.8917 19.8109 34.5565C19.7275 33.3648 19.9753 30.8868 20.5541 27.1226C19.4828 27.5905 18.1289 28.0313 16.4925 28.4451C16.9984 28.9898 17.2793 29.6626 17.3353 30.4633C17.4499 32.1019 16.88 33.4516 15.6256 34.5124C14.3898 35.5718 12.785 36.1706 10.8112 36.3086C8.85595 36.4453 7.27328 36.0227 6.06316 35.0407C4.85175 34.0401 4.20177 32.9067 4.11322 31.6405C4.06635 30.9701 4.17886 30.4383 4.45075 30.045C4.72265 29.6518 5.06343 29.4408 5.4731 29.4122C5.90139 29.3822 6.26495 29.4971 6.5638 29.7569C6.86135 29.9981 7.0225 30.2956 7.04724 30.6494C7.10713 31.506 7.45455 32.1927 8.08949 32.7097C8.72313 33.208 9.52411 33.4234 10.4924 33.3556C11.4607 33.2879 12.285 33.0338 12.9653 32.5933C13.6628 32.1328 13.9869 31.5488 13.9374 30.8412C13.8879 30.1336 13.6759 29.6432 13.3012 29.37C12.5465 29.8157 11.8991 30.0575 11.3591 30.0952C10.8377 30.1317 10.2794 29.9088 9.68435 29.4264C9.08926 28.9441 8.77869 28.5167 8.75265 28.1443C8.69796 27.3622 9.62029 26.9048 11.5197 26.7719C11.7245 26.7576 12.0517 26.7535 12.5012 26.7595C14.0435 25.2669 14.7704 23.8875 14.6818 22.6213C14.6558 22.2488 14.5644 22.012 14.4076 21.9107C14.2495 21.7907 13.9284 21.7477 13.4442 21.7815C12.9601 21.8154 12.4119 22.0034 11.7996 22.3456C11.186 22.6692 10.8903 22.9893 10.9124 23.3059C10.9515 23.8645 10.8731 24.2162 10.6774 24.3608C10.302 24.6116 10.0026 24.7448 9.7791 24.7605C9.55565 24.7761 9.18361 24.5401 8.663 24.0526C8.16101 23.5638 7.8983 23.1517 7.87486 22.8166C7.80585 21.8296 8.38643 20.9002 9.6166 20.0283C10.8455 19.1377 12.1023 18.6475 13.3872 18.5577C14.6721 18.4678 15.6645 18.7446 16.3644 19.388C17.0643 20.0314 17.4546 20.9304 17.5354 22.0849C17.6148 23.2208 17.3324 24.4007 16.6882 25.6246C18.4355 24.9224 19.895 24.1186 21.0667 23.2133C21.2094 22.0432 21.3264 21.1742 21.4177 20.6065L20.1049 20.6983C19.4718 20.7426 18.9779 20.6367 18.6231 20.3809C18.2857 20.1051 18.1008 19.7344 18.0682 19.2689C18.0005 18.3006 18.6091 17.7715 19.8939 17.6816ZM51.0135 15.5056L57.3819 15.0602C58.015 15.016 58.4996 15.1224 58.8357 15.3796C59.1718 15.6368 59.3548 15.9795 59.3848 16.4078C59.4134 16.8175 59.2712 17.1923 58.9582 17.5323C58.6625 17.8524 58.2073 18.0339 57.5929 18.0769L54.4645 18.2956C54.4374 19.5138 54.2614 21.1447 53.9365 23.1884C53.6289 25.2121 53.4092 26.7525 53.2773 27.8096C53.1627 28.8468 53.0617 29.6772 52.9743 30.3008C52.8856 30.9058 52.7703 31.5314 52.6284 32.1775C52.3804 33.4486 51.9678 34.1043 51.3906 34.1447C50.9809 34.1733 50.5968 34.0318 50.2381 33.72C49.8782 33.3896 49.6748 32.8893 49.6279 32.2189C49.6071 31.921 49.6658 30.8877 49.8041 29.1191C49.9611 27.3492 50.0652 26.163 50.1167 25.5606C50.1681 24.9582 50.3592 22.6058 50.6898 18.5034C49.7496 18.4382 49.2489 17.968 49.1877 17.0928C49.12 16.1245 49.7286 15.5954 51.0135 15.5056ZM35.8084 26.0559L35.8025 25.9721C35.7687 25.488 35.8145 25.0731 35.94 24.7275C36.0842 24.3806 36.3145 24.1961 36.6311 24.1739C36.9477 24.1518 37.2852 24.2966 37.6439 24.6083C38.0198 24.9002 38.4429 25.198 38.9133 25.502C39.4023 25.8046 39.9726 25.9331 40.6244 25.8876C42.0023 25.7912 43.1808 25.2503 44.1598 24.265C44.0121 24.294 43.78 24.3196 43.4634 24.3417C41.7875 24.4589 40.3822 24.1642 39.2475 23.4577C38.1301 22.7312 37.5265 21.7255 37.4366 20.4406C37.3468 19.1558 37.8119 18.0473 38.8321 17.1152C39.8522 16.1831 41.1909 15.6591 42.8482 15.5432C44.5241 15.426 45.918 15.8244 47.0298 16.7384C48.1416 17.6525 48.7567 18.9567 48.8752 20.6512C48.9924 22.3272 48.4247 23.9761 47.1721 25.5981C45.9182 27.2015 44.2217 28.2277 42.0825 28.6766C44.1524 30.9832 45.2173 32.5648 45.2772 33.4213C45.3007 33.7565 45.1985 34.035 44.9708 34.2568C44.7417 34.4599 44.4968 34.5706 44.2361 34.5888C43.9754 34.607 43.7593 34.5941 43.5878 34.5499C43.4337 34.4859 43.2583 34.3859 43.0616 34.2499C42.8836 34.1127 42.7156 33.9841 42.5575 33.8641C42.3981 33.7256 42.1982 33.5431 41.9578 33.3166C41.7348 33.0703 41.5429 32.8685 41.3822 32.7113C41.2388 32.5342 41.0357 32.3052 40.7728 32.0241C40.5099 31.7431 40.2675 31.4888 40.0458 31.261C39.8426 31.0319 39.4795 30.655 38.9563 30.1303C38.4504 29.5855 38.0467 29.1647 37.7452 28.8677C37.4611 28.5507 37.1557 28.1978 36.8291 27.809C36.1786 27.0686 35.8383 26.4842 35.8084 26.0559ZM43.2281 18.9691C42.6881 19.0068 42.2217 19.1611 41.829 19.4318C41.4535 19.6826 41.2821 20.0408 41.3147 20.5063C41.3459 20.9532 41.5761 21.302 42.0053 21.5527C42.4519 21.7834 42.9172 21.8819 43.4013 21.848C43.8855 21.8141 44.5712 21.7194 45.4585 21.5638C45.4706 21.4694 45.4689 21.3105 45.4533 21.087C45.4025 20.3608 45.1586 19.8165 44.7216 19.4541C44.2846 19.0917 43.7867 18.93 43.2281 18.9691ZM65.8588 14.4675C66.4919 14.4232 66.9765 14.5297 67.3126 14.7868C67.6487 15.044 67.8317 15.3868 67.8616 15.815C67.8903 16.2247 67.7481 16.5995 67.4351 16.9395C67.1393 17.2596 66.6842 17.4411 66.0697 17.4841L62.8296 17.7107C62.7365 20.393 62.542 22.8299 62.2462 25.0212C61.9676 27.1926 61.742 28.6492 61.5693 29.391C61.414 30.113 61.2194 30.8096 60.9857 31.4808C60.7693 32.1322 60.5145 32.6365 60.2214 32.9938C59.9469 33.3499 59.642 33.5396 59.3068 33.563C58.9717 33.5865 58.7012 33.465 58.4955 33.1987C58.307 32.9125 58.1926 32.4808 58.1523 31.9035C58.1119 31.3263 58.2983 29.442 58.7113 26.2508C59.1417 23.0396 59.3786 20.2723 59.4219 17.949L50.5396 18.5701C49.9065 18.6143 49.4219 18.5079 49.0858 18.2507C48.7298 17.9762 48.5355 17.6062 48.503 17.1407C48.4353 16.1724 49.0438 15.6433 50.3287 15.5534L51.6973 15.4577C52.0461 13.4873 52.8956 11.4537 54.246 9.35709C55.6137 7.24053 56.9772 6.13472 58.3366 6.03966C59.7145 5.94331 60.7537 6.48814 61.4542 7.67417C62.1732 8.8589 62.5992 10.4009 62.732 12.3003C62.7671 12.8031 62.8039 13.5958 62.8421 14.6784L65.8588 14.4675ZM59.3309 13.4363C59.1565 10.9411 58.8364 9.70973 58.3709 9.74229C58.0357 9.76572 57.4988 10.3833 56.7602 11.5952C56.0403 12.8057 55.4606 14.0157 55.0212 15.2253L59.4065 14.9187C59.403 14.6008 59.3778 14.1067 59.3309 13.4363ZM63.2869 14.6473L82.8671 13.2781C83.5002 13.2339 83.9848 13.3403 84.3209 13.5975C84.657 13.8547 84.84 14.1974 84.8699 14.6257C84.8986 15.0354 84.7564 15.4102 84.4433 15.7502C84.1476 16.0703 83.6925 16.2518 83.078 16.2948L79.8938 16.5174C79.8667 17.7356 79.6907 19.3665 79.3658 21.4102C79.0582 23.4339 78.8385 24.9743 78.7065 26.0314C78.5919 27.0686 78.491 27.899 78.4036 28.5226C78.3149 29.1276 78.1996 29.7532 78.0576 30.3993C77.8097 31.6704 77.3971 32.3261 76.8199 32.3665C76.4102 32.3951 76.026 32.2536 75.6674 31.9418C75.3075 31.6115 75.1041 31.1111 75.0572 30.4407C75.0416 30.2173 75.1652 28.5058 75.428 25.3064C73.6074 27.9037 71.7474 29.2688 69.848 29.4016C68.7308 29.4797 67.8412 28.9338 67.1793 27.7637C66.536 26.5924 66.1499 25.085 66.021 23.2415C65.8908 21.3794 66.0087 19.4532 66.3748 17.4628L63.4978 17.664C62.8647 17.7082 62.3801 17.6018 62.044 17.3446C61.688 17.0701 61.4937 16.7001 61.4611 16.2345C61.3934 15.2662 62.002 14.7372 63.2869 14.6473ZM76.095 16.7831L71.7656 17.0858C72.6142 18.7854 73.4685 20.2975 74.3283 21.6221C75.1205 20.1071 75.6993 18.6165 76.0646 17.1501L76.095 16.7831ZM70.4178 25.9093C71.1068 25.8611 71.9224 25.2147 72.8645 23.9699C71.6339 22.428 70.5444 20.8949 69.5957 19.3707C69.4755 20.5954 69.459 21.8316 69.5463 23.0792C69.6804 24.9972 69.9709 25.9406 70.4178 25.9093Z" fill="black"/>
<path d="M17.8939 15.6817L34.0385 14.5528C34.6716 14.5085 35.1563 14.6149 35.4923 14.8721C35.8284 15.1293 36.0115 15.472 36.0414 15.9003C36.0701 16.31 35.9279 16.6848 35.6148 17.0248C35.3191 17.3449 34.864 17.5264 34.2495 17.5694L31.0932 17.7901C31.0661 19.0083 30.8981 20.6199 30.5892 22.625C30.2803 24.6301 30.0426 26.1812 29.8761 27.2781C29.7281 28.3738 29.6092 29.2148 29.5192 29.8012C29.4279 30.3689 29.3126 30.9945 29.1733 31.6779C28.9439 32.9476 28.6338 33.5962 28.2427 33.6235C27.9075 33.647 27.4504 33.3982 26.8713 32.8774C26.3096 32.3366 26.0092 31.7868 25.9701 31.2282C25.9584 31.0606 25.9962 30.665 26.0836 30.0414C26.4851 27.4872 26.7056 25.8251 26.7454 25.0551C26.8473 23.5697 27.0304 21.2366 27.2945 18.0557L23.4678 18.3233C23.4233 18.7568 23.2342 19.7992 22.9006 21.4505C22.5842 23.0819 22.3818 24.2001 22.2931 24.8051C22.2031 25.3914 22.0997 26.0536 21.9829 26.7915C21.8847 27.5282 21.7954 28.1239 21.7149 28.5786C21.653 29.032 21.5698 29.5805 21.4651 30.224C21.3591 30.8489 21.2546 31.3615 21.1516 31.7616C21.0672 32.1605 20.9635 32.5513 20.8406 32.9342C20.6333 33.7159 20.39 34.1165 20.1107 34.136C19.7382 34.1621 19.2677 33.9891 18.699 33.6172C18.1304 33.2453 17.8343 32.8918 17.8109 32.5566C17.7275 31.3649 17.9753 28.8869 18.5541 25.1227C17.4828 25.5905 16.1289 26.0314 14.4925 26.4452C14.9984 26.9899 15.2793 27.6626 15.3353 28.4633C15.4499 30.102 14.88 31.4517 13.6256 32.5125C12.3898 33.5719 10.785 34.1706 8.81117 34.3087C6.85595 34.4454 5.27328 34.0228 4.06316 33.0408C2.85175 32.0402 2.20177 30.9068 2.11322 29.6405C2.06635 28.9702 2.17886 28.4383 2.45075 28.0451C2.72265 27.6518 3.06343 27.4409 3.4731 27.4122C3.90139 27.3823 4.26495 27.4972 4.5638 27.757C4.86135 27.9981 5.0225 28.2956 5.04724 28.6494C5.10713 29.506 5.45455 30.1928 6.08949 30.7098C6.72313 31.2081 7.52411 31.4234 8.49241 31.3557C9.46071 31.288 10.285 31.0339 10.9653 30.5934C11.6628 30.1329 11.9869 29.5489 11.9374 28.8413C11.8879 28.1337 11.6759 27.6433 11.3012 27.3701C10.5465 27.8158 9.8991 28.0575 9.35908 28.0953C8.83769 28.1318 8.27945 27.9088 7.68435 27.4265C7.08926 26.9442 6.77869 26.5168 6.75265 26.1444C6.69796 25.3623 7.62029 24.9048 9.51965 24.772C9.72449 24.7577 10.0517 24.7535 10.5012 24.7595C12.0435 23.267 12.7704 21.8876 12.6818 20.6213C12.6558 20.2489 12.5644 20.012 12.4076 19.9107C12.2495 19.7908 11.9284 19.7477 11.4442 19.7816C10.9601 19.8155 10.4119 20.0035 9.79957 20.3457C9.18598 20.6693 8.89026 20.9894 8.91239 21.3059C8.95146 21.8646 8.87313 22.2162 8.67741 22.3609C8.30199 22.6117 8.00255 22.7449 7.7791 22.7605C7.55565 22.7762 7.18361 22.5402 6.663 22.0527C6.16101 21.5638 5.8983 21.1518 5.87486 20.8166C5.80585 19.8297 6.38643 18.9003 7.6166 18.0283C8.84548 17.1378 10.1023 16.6476 11.3872 16.5577C12.6721 16.4679 13.6645 16.7447 14.3644 17.3881C15.0643 18.0315 15.4546 18.9304 15.5354 20.085C15.6148 21.2209 15.3324 22.4008 14.6882 23.6247C16.4355 22.9224 17.895 22.1186 19.0667 21.2134C19.2094 20.0432 19.3264 19.1743 19.4177 18.6065L18.1049 18.6983C17.4718 18.7426 16.9779 18.6368 16.6231 18.3809C16.2857 18.1051 16.1008 17.7345 16.0682 17.2689C16.0005 16.3006 16.6091 15.7716 17.8939 15.6817ZM49.0135 13.5056L55.3819 13.0603C56.015 13.016 56.4996 13.1225 56.8357 13.3797C57.1718 13.6368 57.3548 13.9796 57.3848 14.4079C57.4134 14.8175 57.2712 15.1924 56.9582 15.5324C56.6625 15.8524 56.2073 16.034 55.5929 16.0769L52.4645 16.2957C52.4374 17.5139 52.2614 19.1448 51.9365 21.1884C51.6289 23.2122 51.4092 24.7526 51.2773 25.8097C51.1627 26.8469 51.0617 27.6773 50.9743 28.3009C50.8856 28.9059 50.7703 29.5314 50.6284 30.1776C50.3804 31.4486 49.9678 32.1044 49.3906 32.1447C48.9809 32.1734 48.5968 32.0318 48.2381 31.7201C47.8782 31.3897 47.6748 30.8893 47.6279 30.219C47.6071 29.921 47.6658 28.8878 47.8041 27.1191C47.9611 25.3492 48.0652 24.1631 48.1167 23.5607C48.1681 22.9583 48.3592 20.6059 48.6898 16.5035C47.7496 16.4383 47.2489 15.968 47.1877 15.0928C47.12 14.1245 47.7286 13.5955 49.0135 13.5056ZM33.8084 24.056L33.8025 23.9722C33.7687 23.488 33.8145 23.0732 33.94 22.7276C34.0842 22.3807 34.3145 22.1961 34.6311 22.174C34.9477 22.1519 35.2852 22.2967 35.6439 22.6084C36.0198 22.9002 36.4429 23.1981 36.9133 23.502C37.4023 23.8047 37.9726 23.9332 38.6244 23.8876C40.0023 23.7913 41.1808 23.2504 42.1598 22.265C42.0121 22.2941 41.78 22.3197 41.4634 22.3418C39.7875 22.459 38.3822 22.1643 37.2475 21.4577C36.1301 20.7312 35.5265 19.7256 35.4366 18.4407C35.3468 17.1558 35.8119 16.0474 36.8321 15.1153C37.8522 14.1832 39.1909 13.6592 40.8482 13.5433C42.5241 13.4261 43.918 13.8245 45.0298 14.7385C46.1416 15.6525 46.7567 16.9568 46.8752 18.6513C46.9924 20.3272 46.4247 21.9762 45.1721 23.5982C43.9182 25.2015 42.2217 26.2277 40.0825 26.6767C42.1524 28.9833 43.2173 30.5648 43.2772 31.4214C43.3007 31.7566 43.1985 32.0351 42.9708 32.2568C42.7417 32.46 42.4968 32.5706 42.2361 32.5889C41.9754 32.6071 41.7593 32.5941 41.5878 32.55C41.4337 32.4859 41.2583 32.3859 41.0616 32.25C40.8836 32.1127 40.7156 31.9841 40.5575 31.8642C40.3981 31.7256 40.1982 31.5431 39.9578 31.3167C39.7348 31.0703 39.5429 30.8685 39.3822 30.7114C39.2388 30.5343 39.0357 30.3052 38.7728 30.0242C38.5099 29.7432 38.2675 29.4888 38.0458 29.2611C37.8426 29.032 37.4795 28.6551 36.9563 28.1303C36.4504 27.5856 36.0467 27.1647 35.7452 26.8677C35.4611 26.5508 35.1557 26.1979 34.8291 25.809C34.1786 25.0686 33.8383 24.4843 33.8084 24.056ZM41.2281 16.9691C40.6881 17.0069 40.2217 17.1611 39.829 17.4319C39.4535 17.6827 39.2821 18.0408 39.3147 18.5064C39.3459 18.9533 39.5761 19.3021 40.0053 19.5527C40.4519 19.7835 40.9172 19.8819 41.4013 19.8481C41.8855 19.8142 42.5712 19.7195 43.4585 19.5639C43.4706 19.4695 43.4689 19.3105 43.4533 19.0871C43.4025 18.3608 43.1586 17.8165 42.7216 17.4541C42.2846 17.0917 41.7867 16.9301 41.2281 16.9691ZM63.8588 12.4675C64.4919 12.4233 64.9765 12.5297 65.3126 12.7869C65.6487 13.0441 65.8317 13.3868 65.8616 13.8151C65.8903 14.2248 65.7481 14.5996 65.4351 14.9396C65.1393 15.2597 64.6842 15.4412 64.0697 15.4842L60.8296 15.7107C60.7365 18.3931 60.542 20.8299 60.2462 23.0212C59.9676 25.1926 59.742 26.6492 59.5693 27.3911C59.414 28.113 59.2194 28.8096 58.9857 29.4809C58.7693 30.1323 58.5145 30.6366 58.2214 30.9939C57.9469 31.3499 57.642 31.5397 57.3068 31.5631C56.9717 31.5865 56.7012 31.4651 56.4955 31.1988C56.307 30.9126 56.1926 30.4808 56.1523 29.9036C56.1119 29.3263 56.2983 27.4421 56.7113 24.2508C57.1417 21.0396 57.3786 18.2724 57.4219 15.949L48.5396 16.5701C47.9065 16.6144 47.4219 16.508 47.0858 16.2508C46.7298 15.9763 46.5355 15.6063 46.503 15.1407C46.4353 14.1724 47.0438 13.6433 48.3287 13.5535L49.6973 13.4578C50.0461 11.4873 50.8956 9.45379 52.246 7.35715C53.6137 5.24059 54.9772 4.13478 56.3366 4.03972C57.7145 3.94337 58.7537 4.4882 59.4542 5.67423C60.1732 6.85896 60.5992 8.401 60.732 10.3004C60.7671 10.8031 60.8039 11.5958 60.8421 12.6785L63.8588 12.4675ZM57.3309 11.4364C57.1565 8.94114 56.8364 7.70979 56.3709 7.74235C56.0357 7.76579 55.4988 8.38341 54.7602 9.59522C54.0403 10.8057 53.4606 12.0158 53.0212 13.2254L57.4065 12.9187C57.403 12.6009 57.3778 12.1067 57.3309 11.4364ZM61.2869 12.6474L80.8671 11.2782C81.5002 11.2339 81.9848 11.3404 82.3209 11.5976C82.657 11.8547 82.84 12.1975 82.8699 12.6258C82.8986 13.0354 82.7564 13.4103 82.4433 13.7503C82.1476 14.0703 81.6925 14.2519 81.078 14.2948L77.8938 14.5175C77.8667 15.7357 77.6907 17.3666 77.3658 19.4102C77.0582 21.434 76.8385 22.9744 76.7065 24.0315C76.5919 25.0687 76.491 25.8991 76.4036 26.5227C76.3149 27.1277 76.1996 27.7532 76.0576 28.3994C75.8097 29.6705 75.3971 30.3262 74.8199 30.3665C74.4102 30.3952 74.026 30.2536 73.6674 29.9419C73.3075 29.6115 73.1041 29.1112 73.0572 28.4408C73.0416 28.2173 73.1652 26.5059 73.428 23.3064C71.6074 25.9037 69.7474 27.2688 67.848 27.4016C66.7308 27.4798 65.8412 26.9338 65.1793 25.7638C64.536 24.5925 64.1499 23.0851 64.021 21.2416C63.8908 19.3795 64.0087 17.4532 64.3748 15.4628L61.4978 15.664C60.8647 15.7083 60.3801 15.6018 60.044 15.3446C59.688 15.0701 59.4937 14.7001 59.4611 14.2346C59.3934 13.2663 60.002 12.7372 61.2869 12.6474ZM74.095 14.7831L69.7656 15.0859C70.6142 16.7855 71.4685 18.2976 72.3283 19.6222C73.1205 18.1072 73.6993 16.6165 74.0646 15.1501L74.095 14.7831ZM68.4178 23.9094C69.1068 23.8612 69.9224 23.2147 70.8645 21.97C69.6339 20.4281 68.5444 18.895 67.5957 17.3708C67.4755 18.5955 67.459 19.8317 67.5463 21.0793C67.6804 22.9973 67.9709 23.9406 68.4178 23.9094Z" fill="#FFFCF9"/>
</svg>
